<?xml version="1.0" encoding="utf-8"?>
<!-- Generator: Adobe Illustrator 16.0.3, SVG Export Plug-In . SVG Version: 6.00 Build 0)  -->
<!DOCTYPE svg PUBLIC "-//W3C//DTD SVG 1.1//EN" "http://www.w3.org/Graphics/SVG/1.1/DTD/svg11.dtd">
<svg version="1.1" id="レイヤー_1" xmlns="http://www.w3.org/2000/svg" xmlns:xlink="http://www.w3.org/1999/xlink" x="0px"
	 y="0px" width="1024px" height="512px" viewBox="0 0 1024 512" enable-background="new 0 0 1024 512" xml:space="preserve">
<path opacity="0.3" enable-background="new    " d="M955.714,358.788l-100.187-231.12c-12.102-17.016-35.7-21.003-52.72-8.904
	c-3.442,2.45-6.455,5.463-8.901,8.904l-73.345,168.991l-73.849-168.991c-12.1-17.016-35.702-21.003-52.718-8.903
	c-3.447,2.449-6.457,5.461-8.906,8.903l-73.594,169.75l-73.474-169.75c-12.099-17.016-35.698-21.003-52.717-8.904
	c-3.445,2.45-6.455,5.463-8.904,8.904l-73.596,168.991l-73.721-168.991c-12.099-17.016-35.701-21.003-52.72-8.904
	c-3.445,2.45-6.455,5.46-8.904,8.904L67.407,358.662c-5.542,15.091,2.2,31.819,17.291,37.361
	c13.039,4.786,27.643-0.304,34.879-12.157l78.763-183.987l78.763,184.994c9.369,14.164,28.445,18.052,42.608,8.683
	c3.447-2.279,6.396-5.231,8.682-8.683l78.762-183.983l78.765,183.983c4.569,8.234,13.144,13.455,22.558,13.737h6.3
	c9.416-0.282,17.985-5.503,22.561-13.737L616.1,200.889l78.635,183.983c9.477,14.097,28.58,17.843,42.677,8.365
	c3.305-2.221,6.145-5.062,8.36-8.365l78.766-183.983l78.888,183.983c7.667,14.209,25.4,19.517,39.614,11.849
	C956.595,389.399,962.145,372.801,955.714,358.788z"/>
</svg>
